
    <!-- Inline SVG -->
    <svg 
      viewBox="0 0 800 630" 
      preserveAspectRatio="xMidYMid meet" 
      xmlns="http://www.w3.org/2000/svg"
    >
      <!-- Top-left dotted pattern -->
      <g fill="#2196F3" transform="translate(6,6)">
        <!-- 6 columns, 6 rows, spacing of 22px (example) -->
        <!-- You can manually adjust or add more rows/columns -->
        <circle cx="0"   cy="0"  r="6"/>
        <circle cx="0"   cy="20" r="6"/>
        <circle cx="0"   cy="40" r="6"/>
        <circle cx="0"   cy="60" r="6"/>
        <circle cx="0"   cy="80" r="6"/>
        <circle cx="0"   cy="100" r="6"/>
        <circle cx="0"   cy="120" r="6"/>

        <circle cx="20"  cy="0"  r="6"/>
        <circle cx="20"  cy="20" r="6"/>
        <circle cx="20"  cy="40" r="6"/>
        <circle cx="20"  cy="60" r="6"/>
        <circle cx="20"  cy="80" r="6"/>
        <circle cx="20"  cy="100" r="6"/>
        <circle cx="20"   cy="120" r="6"/>

        <circle cx="40"  cy="0"  r="6"/>
        <circle cx="40"  cy="20" r="6"/>
        <circle cx="40"  cy="40" r="6"/>

        <circle cx="60"  cy="0"  r="6"/>
        <circle cx="60"  cy="20" r="6"/>
        <circle cx="60"  cy="40" r="6"/>

        <circle cx="80"  cy="0"  r="6"/>
        <circle cx="80"  cy="20" r="6"/>
        <circle cx="80"  cy="40" r="6"/>

        <circle cx="100"  cy="0"  r="6"/>
        <circle cx="100"  cy="20" r="6"/>
        <circle cx="100"  cy="40" r="6"/>
      </g>

      <!-- “Corner” lines (blue) -->
      <!-- Bottom-left “L” shape -->
      <rect x="6" y="600" width="600" height="32" fill="#2196F3" />
      <rect x="6" y="375" width="32" height="225" fill="#2196F3" />
    </svg>