<?xml version="1.0" encoding="UTF-8"?>
<svg id="OutlinedLayers" xmlns="http://www.w3.org/2000/svg" width="264.87" height="37.55" viewBox="0 0 264.87 37.55">
  <defs>
    <style>
      .cls-1 {
        fill: #8da2b5;
      }

      .cls-2 {
        fill: #0095f7;
      }

      .cls-3 {
        fill: #3a3f53;
      }
    </style>
  </defs>
  <g>
    <path class="cls-2" d="M11.05,8.97h-5.25v4.29h6.09v1.3h-7.69V2.46h7.61v1.3h-6.01v3.9h5.25v1.3Z"/>
    <path class="cls-2" d="M20.14,11.4h-5.07l-1.14,3.17h-1.65l4.62-12.1h1.4l4.63,12.1h-1.64l-1.16-3.17ZM15.55,10.09h4.12l-2.06-5.66-2.05,5.66Z"/>
    <path class="cls-2" d="M28.58,9.67h-2.84v4.9h-1.6V2.46h4.01c1.36,0,2.41.31,3.15.93.73.62,1.1,1.52,1.1,2.71,0,.75-.2,1.41-.61,1.97-.41.56-.97.98-1.7,1.25l2.84,5.14v.1h-1.71l-2.63-4.9ZM25.74,8.36h2.45c.79,0,1.42-.21,1.89-.62.47-.41.7-.96.7-1.65,0-.75-.22-1.32-.67-1.72-.45-.4-1.09-.6-1.93-.61h-2.44v4.6Z"/>
    <path class="cls-2" d="M35.8,13.26h5.74v1.3h-7.34V2.46h1.6v10.8Z"/>
    <path class="cls-2" d="M44.64,14.56h-1.6V2.46h1.6v12.1Z"/>
    <path class="cls-2" d="M53.98,8.97h-5.25v4.29h6.09v1.3h-7.69V2.46h7.61v1.3h-6.01v3.9h5.25v1.3Z"/>
    <path class="cls-2" d="M59.95,9.17c-1.37-.39-2.37-.88-2.99-1.45-.62-.57-.94-1.28-.94-2.12,0-.95.38-1.74,1.14-2.37.76-.62,1.75-.93,2.97-.93.83,0,1.57.16,2.22.48.65.32,1.16.77,1.51,1.33.36.57.54,1.18.54,1.85h-1.6c0-.73-.23-1.31-.7-1.73-.47-.42-1.12-.63-1.97-.63-.79,0-1.4.17-1.84.52-.44.35-.66.83-.66,1.45,0,.49.21.91.63,1.25.42.34,1.13.65,2.14.94,1.01.28,1.79.59,2.36.94.57.34.99.74,1.26,1.19.27.45.41.99.41,1.6,0,.98-.38,1.77-1.15,2.36-.77.59-1.79.88-3.07.88-.83,0-1.61-.16-2.33-.48-.72-.32-1.28-.75-1.67-1.31-.39-.55-.59-1.18-.59-1.89h1.6c0,.73.27,1.31.81,1.73.54.42,1.26.64,2.17.64.84,0,1.49-.17,1.94-.52.45-.34.67-.81.67-1.41s-.21-1.05-.62-1.38c-.42-.32-1.17-.64-2.26-.96Z"/>
    <path class="cls-2" d="M74.42,3.77h-3.89v10.8h-1.59V3.77h-3.88v-1.3h9.36v1.3Z"/>
    <path class="cls-2" d="M81.31,2.46l3.96,9.88,3.96-9.88h2.07v12.1h-1.6v-4.71l.15-5.09-3.97,9.8h-1.22l-3.97-9.78.16,5.06v4.71h-1.6V2.46h2.06Z"/>
    <path class="cls-2" d="M95.4,14.56h-1.6V2.46h1.6v12.1Z"/>
    <path class="cls-2" d="M107.2,14.56h-1.6l-6.09-9.33v9.33h-1.6V2.46h1.6l6.11,9.37V2.46h1.59v12.1Z"/>
    <path class="cls-2" d="M118.51,10.72c-.15,1.28-.62,2.27-1.42,2.96-.8.7-1.85,1.04-3.17,1.04-1.43,0-2.58-.51-3.44-1.54-.86-1.02-1.29-2.4-1.29-4.11v-1.16c0-1.12.2-2.11.6-2.97s.97-1.51,1.71-1.97c.74-.46,1.59-.69,2.56-.69,1.29,0,2.32.36,3.09,1.08.78.72,1.23,1.71,1.35,2.98h-1.6c-.14-.97-.44-1.67-.9-2.1-.46-.43-1.11-.65-1.94-.65-1.02,0-1.82.38-2.4,1.13-.58.75-.87,1.83-.87,3.22v1.17c0,1.31.27,2.36.82,3.14.55.78,1.32,1.17,2.3,1.17.89,0,1.57-.2,2.04-.6.47-.4.79-1.1.94-2.1h1.6Z"/>
    <path class="cls-2" d="M129.56,14.56h-1.6v-5.59h-6.1v5.59h-1.6V2.46h1.6v5.2h6.1V2.46h1.6v12.1Z"/>
    <path class="cls-2" d="M138.8,11.4h-5.07l-1.14,3.17h-1.65l4.62-12.1h1.4l4.63,12.1h-1.64l-1.16-3.17ZM134.22,10.09h4.12l-2.06-5.66-2.05,5.66Z"/>
  </g>
  <g>
    <path class="cls-1" d="M158.44,13.5c-.27.38-.69.68-1.27.9-.58.21-1.22.32-1.93.32s-1.36-.17-1.92-.52c-.56-.35-1-.83-1.3-1.47-.31-.63-.46-1.36-.47-2.18v-1.17c0-1.28.32-2.29.97-3.03.65-.74,1.51-1.11,2.6-1.11.95,0,1.71.24,2.29.72.58.48.92,1.15,1.03,2h-.78c-.11-.68-.39-1.19-.83-1.54-.44-.35-1.01-.52-1.71-.52-.86,0-1.54.31-2.04.92-.5.61-.75,1.48-.75,2.59v1.09c0,.7.12,1.32.36,1.86.24.54.58.96,1.03,1.25.44.29.96.44,1.53.44.67,0,1.25-.11,1.73-.32.31-.14.54-.3.7-.49v-2.38h-2.48v-.66h3.25v3.28Z"/>
    <path class="cls-1" d="M163.12,10.75h-2.68v3.84h-.79V5.38h2.99c.98,0,1.75.24,2.3.71.55.48.83,1.14.83,2,0,.59-.17,1.11-.52,1.56-.35.45-.81.76-1.39.94l2.3,3.92v.08h-.83l-2.23-3.84ZM160.45,10.09h2.39c.65,0,1.18-.19,1.58-.56.4-.37.59-.85.59-1.45,0-.65-.21-1.16-.62-1.51s-.99-.54-1.74-.54h-2.2v4.06Z"/>
    <path class="cls-1" d="M171.91,12.01h-4.18l-.95,2.59h-.82l3.49-9.22h.74l3.49,9.22h-.81l-.96-2.59ZM167.97,11.35h3.7l-1.85-5.02-1.85,5.02Z"/>
    <path class="cls-1" d="M177.63,9.57c-.37-.44-.63-.84-.8-1.19-.17-.35-.25-.69-.25-1.03,0-.65.19-1.16.58-1.53.38-.38.9-.56,1.54-.56.59,0,1.06.17,1.42.51.36.34.54.77.54,1.29,0,.61-.35,1.21-1.05,1.79l-1.01.78,2.53,2.95c.38-.62.58-1.32.58-2.11h.7c0,1.05-.27,1.93-.81,2.65l1.26,1.47h-.91l-.8-.92c-.33.33-.72.59-1.16.77-.44.19-.9.28-1.38.28-.88,0-1.57-.22-2.09-.67-.52-.45-.77-1.05-.77-1.8,0-.45.13-.87.4-1.27.26-.4.73-.85,1.39-1.35l.09-.06ZM178.62,14.08c.38,0,.76-.08,1.12-.24.36-.16.68-.39.97-.69l-2.58-2.99-.09-.09-.29.22c-.83.67-1.24,1.33-1.24,1.96,0,.55.19,1,.57,1.33.38.33.89.5,1.54.5ZM177.34,7.32c0,.51.28,1.12.85,1.82l.83-.63c.27-.19.49-.41.66-.64.17-.23.26-.5.26-.82,0-.33-.11-.6-.34-.83-.23-.22-.53-.33-.91-.33-.41,0-.74.13-.99.4-.25.27-.37.61-.37,1.03Z"/>
    <path class="cls-1" d="M185.42,14.59V5.38h2.72c.99,0,1.74.2,2.25.61.51.41.77,1.01.77,1.8,0,.48-.13.89-.39,1.24-.26.35-.62.61-1.07.76.54.12.97.38,1.29.79s.49.88.49,1.42c0,.81-.26,1.45-.79,1.91-.53.46-1.26.69-2.19.69h-3.08ZM186.2,9.51h2.13c.65-.01,1.15-.17,1.51-.46.36-.29.53-.72.53-1.28,0-.59-.18-1.03-.55-1.31s-.93-.42-1.67-.42h-1.94v3.47ZM186.2,10.17v3.77h2.34c.67,0,1.2-.17,1.59-.51.39-.34.59-.81.59-1.41,0-.57-.19-1.02-.56-1.35-.37-.33-.89-.5-1.55-.5h-2.4Z"/>
    <path class="cls-1" d="M197.37,12.01h-4.18l-.95,2.59h-.82l3.49-9.22h.74l3.49,9.22h-.81l-.96-2.59ZM193.43,11.35h3.7l-1.85-5.02-1.85,5.02Z"/>
    <path class="cls-1" d="M204.49,12.01h-4.18l-.95,2.59h-.82l3.49-9.22h.74l3.49,9.22h-.81l-.96-2.59ZM200.55,11.35h3.7l-1.85-5.02-1.85,5.02Z"/>
    <path class="cls-1" d="M207.43,13.94h4.55v.66h-5.34V5.38h.79v8.56Z"/>
    <path class="cls-1" d="M221.51,14.59h-.78v-4.42h-5.27v4.42h-.78V5.38h.78v4.14h5.27v-4.14h.78v9.22Z"/>
    <path class="cls-1" d="M227.97,12.01h-4.18l-.95,2.59h-.82l3.49-9.22h.74l3.49,9.22h-.81l-.96-2.59ZM224.02,11.35h3.7l-1.85-5.02-1.85,5.02Z"/>
    <path class="cls-1" d="M235.55,6.04h-3.16v8.56h-.78V6.04h-3.15v-.66h7.09v.66Z"/>
    <path class="cls-1" d="M240.54,12.01h-4.18l-.95,2.59h-.82l3.49-9.22h.74l3.49,9.22h-.81l-.96-2.59ZM236.6,11.35h3.7l-1.85-5.02-1.85,5.02Z"/>
    <path class="cls-1" d="M249.55,14.59h-.78l-5.3-7.89v7.89h-.79V5.38h.79l5.3,7.89v-7.89h.77v9.22Z"/>
    <path class="cls-1" d="M253.45,10.4l2.82-5.03h.9l-3.33,5.75v3.47h-.78v-3.47l-3.32-5.75h.92l2.79,5.03Z"/>
    <path class="cls-1" d="M261.91,12.01h-4.18l-.95,2.59h-.82l3.49-9.22h.74l3.49,9.22h-.81l-.96-2.59ZM257.97,11.35h3.7l-1.85-5.02-1.85,5.02Z"/>
  </g>
  <g>
    <path class="cls-1" d="M3.96,33.31v-1.15h.5l-.33-3.72c-.04-.5.07-.94.35-1.31.28-.37.64-.61,1.09-.71l-1.47-2.46h1.4l2.62,4.5c.16-.07.3-.14.42-.23.13-.08.23-.17.32-.26.09-.09.17-.2.23-.31s.11-.23.15-.35.07-.25.09-.39.04-.28.05-.43c0-.15.01-.31.02-.48,0-.17,0-.34,0-.52v-.38h-.72v-1.15h1.14c.25,0,.45.07.6.22.15.15.23.35.23.6h0c0,.43,0,.77,0,1.01,0,.25-.02.52-.03.82-.02.3-.04.53-.08.7-.04.17-.09.35-.15.55s-.14.37-.23.49c-.09.12-.21.26-.35.4-.14.14-.3.27-.47.39-.18.11-.39.23-.63.35l2.23,3.81h-1.39l-3.34-5.77c-.21,0-.39.03-.52.11-.13.08-.22.17-.27.29-.04.12-.07.25-.08.39-.01.14,0,.27.02.4l.44,4.58h-1.83Z"/>
    <path class="cls-1" d="M13.9,25.1v-1.15h1.34c.25,0,.45.08.6.22.16.15.23.35.23.61v3.33h-1.33v-3.01h-.86Z"/>
    <path class="cls-1" d="M19.03,33.31v-1.15l1.45-.02v-7.04h-1.12v-1.15h1.53c.25,0,.45.07.6.22.16.15.23.35.23.6v8.53h-2.7Z"/>
    <path class="cls-1" d="M24.9,33.31v-1.15h.71v-5.21l.48-1.84h-.84v-1.15h6.14c.24,0,.44.07.6.22s.23.35.23.6v8.53h-1.25v-8.21h-4.12v8.21h-1.96Z"/>
    <path class="cls-1" d="M35.74,25.1v-1.15h5.86c.24,0,.44.07.59.22s.23.35.23.6v8.53h-1.25v-8.21h-5.43ZM35.74,33.31v-5.44h1.25v5.44h-1.25Z"/>
    <path class="cls-1" d="M51.79,25.1v-3.03h1.25v1.88h4.41c.24,0,.44.07.59.22.15.15.23.35.23.6v5.36c0,.92-.33,1.71-.99,2.36-.66.65-1.45.98-2.39.98v-1.33c.59,0,1.09-.2,1.5-.6s.62-.88.62-1.45v-4.99h-5.23Z"/>
    <path class="cls-1" d="M61.47,33.31v-1.15h1.23v-7.05h-.86v-1.15h1.34c.25,0,.45.08.6.22.16.15.23.35.23.61v7.37h2.12c.25,0,.44-.08.59-.23.15-.15.22-.35.22-.61v-6.22h-.92v-1.15h1.34c.25,0,.45.07.6.22.15.15.23.35.23.6v6.35c0,.66-.19,1.19-.57,1.59-.38.4-.92.6-1.61.6h-4.56Z"/>
    <path class="cls-1" d="M71.39,33.31v-1.15h5.5v-7.05h-5.5v-1.15h5.92c.25,0,.45.08.6.22.15.15.23.35.23.61v7.37h.79v1.15h-7.54Z"/>
    <path class="cls-1" d="M81.89,25.1v-1.15h1.34c.25,0,.45.07.6.22s.24.35.24.6v8.53h-1.33v-8.21h-.85Z"/>
    <path class="cls-1" d="M93.76,33.31v-1.15h.5l-.33-3.72c-.04-.5.07-.94.35-1.31.28-.37.64-.61,1.09-.71l-1.47-2.46h1.4l2.62,4.5c.16-.07.3-.14.42-.23.13-.08.23-.17.32-.26.09-.09.17-.2.23-.31s.11-.23.15-.35.07-.25.09-.39.04-.28.05-.43c0-.15.01-.31.02-.48,0-.17,0-.34,0-.52v-.38h-.72v-1.15h1.14c.25,0,.45.07.6.22.15.15.23.35.23.6h0c0,.43,0,.77,0,1.01,0,.25-.02.52-.03.82-.02.3-.04.53-.08.7-.04.17-.09.35-.15.55s-.14.37-.23.49c-.09.12-.21.26-.35.4-.14.14-.3.27-.47.39-.18.11-.39.23-.63.35l2.23,3.81h-1.39l-3.34-5.77c-.21,0-.39.03-.52.11-.13.08-.22.17-.27.29-.04.12-.07.25-.08.39-.01.14,0,.27.02.4l.44,4.58h-1.83Z"/>
    <path class="cls-1" d="M103.82,26.71v-2.87h1.25l-.66,2.87h-.6ZM105.8,26.71v-2.87h1.25l-.65,2.87h-.6Z"/>
    <path class="cls-1" d="M109.38,25.1v-1.15h4.04c.7,0,1.24.2,1.63.6.39.4.58.93.58,1.58v7.17h-1.25v-7.38c0-.25-.08-.45-.23-.6s-.36-.22-.61-.22h-4.16Z"/>
    <path class="cls-1" d="M118.6,33.31l1.27-3.11h1.23s-.83-5.1-.83-5.1h-.86v-1.15h1.34c.23,0,.41.07.56.21.14.14.23.31.27.52l1.35,8.63h-.97l-.82-2.93-1.2,2.93h-1.33Z"/>
  </g>
  <g>
    <path class="cls-3" d="M150.79,33.31h-2.87v-9.67h-7.77v-2.67h9.36c.56,0,.93.26,1.11.78.11.33.17.96.17,1.88v9.69ZM143.01,33.31h-2.85v-6.91h2.85v6.91Z"/>
    <path class="cls-3" d="M164.21,29.02c0,1.08-.38,2.02-1.15,2.8-.98.99-2.4,1.48-4.27,1.48h-1.06v-2.67h1.06c1.71,0,2.56-.62,2.56-1.86v-5.15h-6.51v-5.23h2.75v2.56h5.77c.56,0,.85.33.85,1v7.06Z"/>
    <path class="cls-3" d="M172.93,33.31h-2.85v-9.67h-1.72v-2.67h3.81c.24,0,.43.14.58.41.12.23.19.46.19.7v11.23Z"/>
    <path class="cls-3" d="M186.53,23.01c0,.42-.12.62-.37.62h-.62v9.67h-2.85v-9.67h-5.95v-2.67h9.28c.34,0,.52.2.52.6v1.45Z"/>
    <path class="cls-3" d="M197.31,33.31h-2.06l-.9-2.38-1.07,2.38h-3.09l1-2.67h3.16l-.59-7h-1.6v-2.67h3.55c.35,0,.54.14.57.44l1.03,11.91Z"/>
    <path class="cls-3" d="M222.16,33.31h-2.87v-9.67h-7.77v-2.67h9.36c.56,0,.93.26,1.11.78.11.33.17.96.17,1.88v9.69ZM214.37,33.31h-2.85v-6.91h2.85v6.91Z"/>
    <path class="cls-3" d="M237.66,33.31h-2.87v-9.67h-5.11v9.67h-2.85v-7.73l.87-1.94h-.87v-2.67h9.53c.87,0,1.31.4,1.31,1.19v11.15Z"/>
    <path class="cls-3" d="M247.21,33.31h-5.06v-2.67h2.21v-7h-1.82v-2.67h4.03c.43,0,.65.29.65.87v11.47Z"/>
    <path class="cls-3" d="M263.5,33.31h-6.4v-2.67h3.54v-5.58c-.27-1.13-1.16-1.7-2.64-1.7-.66,0-1.23.18-1.73.55-.58.42-.88.99-.88,1.69v7.71h-2.85v-7.71c0-.4.26-1.05.78-1.97h-1.73v-2.67h2.79c.37.24.64.56.81.98.73-.81,1.82-1.22,3.28-1.22s2.53.4,3.44,1.21c.91.81,1.44,1.9,1.59,3.28v8.09Z"/>
  </g>
</svg>